<svg xmlns="http://www.w3.org/2000/svg" viewBox="0 0 64 64" fill="none">
  <rect width="64" height="64" rx="12" fill="#0F4D3F"/>
  <path d="M14 46C14 46 11 43 11 37C11 31 14 28 17 25C20 22 23 22 26 22C29 22 32 19 35 19C41 19 48 22 48 28C48 31 45 34 45 37L48 46H42L40 41C37 43 34 44 31 44C28 44 25 44 23 46H14Z" stroke="white" stroke-width="2.5" stroke-linecap="round" stroke-linejoin="round"/>
  <path d="M23 46V52" stroke="white" stroke-width="2.5" stroke-linecap="round"/>
  <path d="M31 46V52" stroke="white" stroke-width="2.5" stroke-linecap="round"/>
  <circle cx="43" cy="27" r="2.5" fill="white"/>
</svg>
